<svg width="130" height="130" xmlns="http://www.w3.org/2000/svg">

 <g>
  <title>background</title>
  <rect fill="none" id="canvas_background" height="402" width="582" y="-1" x="-1"/>
 </g>
 <g>
  <title>Layer 1</title>
  <line id="svg_1" y2="82.311" y1="82.311" x2="52.588" x1="29.4" stroke-width="2" stroke-miterlimit="10" stroke="#ffffff" fill="none"/>
  <line id="svg_2" y2="63.641" y1="63.641" x2="52.588" x1="29.4" stroke-width="2" stroke-miterlimit="10" stroke="#ffffff" fill="none"/>
  <line id="svg_3" y2="43.756" y1="43.756" x2="52.588" x1="29.4" stroke-width="2" stroke-miterlimit="10" stroke="#ffffff" fill="none"/>
  <path id="svg_4" fill="#ffffff" d="m92.926,56.384l0,51.298c0,2.569 -2.081,4.66 -4.639,4.66l-64.723,0c-2.558,0 -4.639,-2.091 -4.639,-4.66l0,-86.18c0,-2.57 2.081,-4.66 4.639,-4.66l64.723,0c2.558,0 4.639,2.09 4.639,4.66l0,17.131l2,-2.002l0,-15.129c0,-3.678 -2.973,-6.66 -6.639,-6.66l-64.723,0c-3.666,0 -6.639,2.982 -6.639,6.66l0,86.18c0,3.678 2.973,6.66 6.639,6.66l64.723,0c3.666,0 6.639,-2.982 6.639,-6.66l0,-53.3l-2,2.002z"/>
  <path id="svg_5" fill="#ffffff" d="m120.463,25.534c-0.557,-0.898 -1.405,-1.936 -2.393,-2.923c-1.194,-1.195 -3.462,-3.199 -5.224,-3.199c-0.649,0 -1.247,0.242 -1.681,0.677l-7.667,7.666l-36.994,37.079c-0.802,0.802 -1.354,1.759 -1.662,2.775l-8.124,15.801l16.313,-7.45c1.085,-0.305 2.081,-0.879 2.9,-1.698l37.688,-37.771l6.975,-6.975c0.657,-0.658 1.168,-1.882 -0.131,-3.982zm-55.541,46.182c0.318,0.93 0.841,1.805 1.582,2.546c0.652,0.653 1.419,1.15 2.252,1.48l-8.193,4.07l4.359,-8.096zm9.596,1.132c-0.882,0.881 -2.054,1.366 -3.301,1.366c-1.246,0 -2.418,-0.485 -3.299,-1.366c-0.879,-0.88 -1.363,-2.052 -1.363,-3.3c0,-1.249 0.484,-2.421 1.363,-3.3l34.402,-34.4c0.484,1.073 1.402,2.305 2.805,3.709c0.894,0.894 2.387,2.239 3.82,2.861l-34.427,34.43zm44.662,-44.746l-8.564,8.564c-0.075,0.075 -0.186,0.09 -0.266,0.09c-0.414,0 -1.743,-0.546 -3.811,-2.614c-2.402,-2.405 -2.823,-3.776 -2.523,-4.076l8.564,-8.563c0.079,-0.08 0.201,-0.091 0.267,-0.091c0.414,0 1.743,0.546 3.81,2.613c0.867,0.867 1.635,1.8 2.106,2.562c0.075,0.121 0.728,1.203 0.417,1.515z"/>
 </g>
</svg>